# xmcd CD database file
#
# Track frame offsets:
#	150
#	16384
#	25978
#	38479
#	63103
#	81972
#	102259
#	116745
#	141133
#	156020
#	174978
#
# Disc length: 2681 seconds
#
# Revision: 0
# Processed by: cddbd v1.5.2PL0 Copyright (c) Steve Scherf et al.
# Submitted via: CDex 1.70beta2
#
DISCID=810a770b
DTITLE=The Thomas Carr-Affair - Souls Café
DYEAR=2006
DGENRE=Jazz
TTITLE0=Step Back
TTITLE1=Life's Real
TTITLE2=Life's Real Groove
TTITLE3=Sometimes in my Need
TTITLE4=Fly Away
TTITLE5=2006
TTITLE6=Troubled Times
TTITLE7=Sea @ Dawn
TTITLE8=Lay Back
TTITLE9=Outside Lane
TTITLE10=What is Man?
EXTD=YEAR: 2006
EXTT0=
EXTT1=
EXTT2=
EXTT3=
EXTT4=
EXTT5=
EXTT6=
EXTT7=
EXTT8=
EXTT9=
EXTT10=
PLAYORDER=
